<?xml version="1.0" encoding="utf-8"?>
<!-- Generator: Adobe Illustrator 24.0.0, SVG Export Plug-In . SVG Version: 6.00 Build 0)  -->
<svg version="1.1" id="prompt" xmlns="http://www.w3.org/2000/svg" xmlns:xlink="http://www.w3.org/1999/xlink" x="0px" y="0px"
	 viewBox="0 0 202.8 119.6" style="enable-background:new 0 0 202.8 119.6;" xml:space="preserve">
<style type="text/css">
	.st0{fill:none;stroke:#0D81ED;stroke-width:3;}
	.st1{opacity:0.5;fill:none;stroke:#0D81ED;stroke-width:3;enable-background:new    ;}
	.st2{fill:#0D81ED;}
	.st3{opacity:0.2;fill-rule:evenodd;clip-rule:evenodd;fill:#1890FF;enable-background:new    ;}
	.st4{fill-rule:evenodd;clip-rule:evenodd;fill:#4DB3F3;}
	.st5{fill:#4DB3F3;}
	.st6{fill-rule:evenodd;clip-rule:evenodd;fill:#51CCEC;}
	.st7{fill:#37A6EB;}
	.st8{fill:#08D883;}
</style>
<circle id="椭圆_3" class="st0" cx="190.2" cy="58.5" r="8"/>
<circle id="椭圆_3_拷贝" class="st1" cx="166.1" cy="24.4" r="6.7"/>
<g id="圆角矩形_3">
	<path class="st2" d="M8.8,60H8.1c-0.9,0-1.7-0.7-1.7-1.7v-3.9H3c-0.9,0-1.7-0.7-1.7-1.7v-0.4c0-0.9,0.7-1.7,1.7-1.7h3.3v-3.9
		C6.3,45.8,7,45,8,45h0.7c0.9,0,1.7,0.7,1.7,1.7v3.9h3.3c0.9,0,1.7,0.7,1.7,1.7v0.4c0,0.9-0.7,1.7-1.7,1.7h-3.3v3.9
		C10.5,59.3,9.7,60,8.8,60z"/>
</g>
<path id="形状_2" class="st3" d="M40,78.7c0,0,35.4-46.7,53.2-24.8s75.3,0.7,69.6,18c-5.3,16-1,18.8-20.8,28.7
	S89.6,118,72.8,115.9C41.9,112,28.9,95.6,40,78.7z"/>
<path id="圆角矩形_1" class="st4" d="M87.3,5.2l2.1,6.8c1.1,3.4-0.8,7-4.2,8c-3.4,1.1-7-0.8-8-4.2L75,9.1c-1.1-3.4,0.8-7,4.2-8
	C82.6-0.1,86.2,1.8,87.3,5.2L87.3,5.2z"/>
<g>
	<g>
		<g>
			<path class="st5" d="M76.9,11c0,0-33.3,9.8-13.1,58.6c1.2,2.9,1.7,6.1,1.4,9.2c-0.7,7.5-3.5,11.6-5.5,15
				c-0.8,1.3,47.6-31.3,89.4-26.2c0,0-13.2-3.5-17.3-18.9c-0.1-0.3-0.1-0.7-0.2-1c-0.7-4.1-6.3-33.9-30.1-39.8
				C95.2,6.3,88.7,6.8,82.6,9L76.9,11z"/>
		</g>
	</g>
	<g>
		<g>
			<path class="st5" d="M76.9,11c0,0-33.3,9.8-13.1,58.6c1.2,2.9,1.7,6.1,1.4,9.2c-0.7,7.5-3.5,11.6-5.5,15
				c-0.8,1.3,47.6-31.3,89.4-26.2c0,0-13.2-3.5-17.3-18.9c-0.1-0.3-0.1-0.7-0.2-1c-0.7-4.1-6.3-33.9-30.1-39.8
				C95.2,6.3,88.7,6.8,82.6,9L76.9,11z"/>
		</g>
	</g>
</g>
<g>
	<path class="st6" d="M101.8,71.6c25.4-7.5,47.4-8.6,49.1-2.6c1.7,6-17.3,17-42.7,24.5s-47.4,8.6-49.1,2.6
		C57.3,90.1,76.4,79.1,101.8,71.6z"/>
	<path class="st6" d="M101.8,71.6c25.4-7.5,47.4-8.6,49.1-2.6c1.7,6-17.3,17-42.7,24.5s-47.4,8.6-49.1,2.6
		C57.3,90.1,76.4,79.1,101.8,71.6z"/>
</g>
<path class="st7" d="M150.9,69.7c-1.7-6-23.4-4.9-48.5,2.4l4.4,14.3l-2.9,0.9L99.4,73c-24.2,7.5-42.1,18-40.3,23.8
	c1.7,6,23.7,4.9,49.1-2.6C133.6,86.7,152.6,75.7,150.9,69.7z"/>
<path class="st8" d="M106.8,86.4l-4.4-14.3c-0.2,0.1-0.4,0.1-0.6,0.2c-0.8,0.2-1.6,0.5-2.4,0.7l4.4,14.3L106.8,86.4z"/>
<circle id="椭圆_2" class="st8" cx="109" cy="94.6" r="9.5"/>
</svg>
